<?xml version="1.0" encoding="utf-8"?>
<!-- Generator: Adobe Illustrator 13.0.0, SVG Export Plug-In . SVG Version: 6.00 Build 14948)  -->
<!DOCTYPE svg PUBLIC "-//W3C//DTD SVG 1.1//EN" "http://www.w3.org/Graphics/SVG/1.1/DTD/svg11.dtd">
<svg version="1.1" id="Layer_1" xmlns="http://www.w3.org/2000/svg" xmlns:xlink="http://www.w3.org/1999/xlink" x="0px" y="0px"
	 width="246.731px" height="246.731px" viewBox="-133 -152 246.731 246.731" enable-background="new -133 -152 246.731 246.731"
	 xml:space="preserve">
<circle cx="-9.635" cy="-28.635" r="123.365"/>
<g>
	<path fill="#FFFFFF" d="M-52.597-53.171h-10.741c-0.162-2.115-0.815-4.033-1.961-5.754s-2.666-3.188-4.556-4.399
		c-1.892-1.21-4.115-2.14-6.667-2.788c-2.555-0.647-5.28-0.972-8.176-0.972c-3.983,0-7.584,0.597-10.802,1.791
		c-3.22,1.193-5.965,2.933-8.237,5.217c-2.274,2.285-4.024,5.124-5.251,8.517c-1.228,3.394-1.839,7.272-1.839,11.636
		c0,4.365,0.612,8.228,1.839,11.586c1.227,3.359,2.957,6.198,5.19,8.517c2.232,2.32,4.948,4.083,8.147,5.295
		c3.198,1.209,6.768,1.814,10.711,1.814c6.235,0,11.273-1.279,15.116-3.836c3.841-2.556,6.004-6.257,6.487-11.099h10.741
		c-0.362,3.581-1.409,6.76-3.139,9.539c-1.73,2.78-4.003,5.133-6.819,7.059c-2.816,1.927-6.115,3.401-9.896,4.423
		c-3.782,1.022-7.886,1.536-12.31,1.536c-5.673,0-10.783-0.818-15.328-2.456c-4.546-1.636-8.418-3.963-11.617-6.982
		c-3.199-3.017-5.664-6.684-7.394-10.997c-1.73-4.314-2.594-9.113-2.594-14.4c0-5.285,0.875-10.085,2.625-14.399
		c1.75-4.313,4.224-7.979,7.422-10.998c3.199-3.018,7.07-5.354,11.617-7.008c4.546-1.653,9.635-2.481,15.268-2.481
		c4.224,0,8.206,0.511,11.947,1.534c3.742,1.023,7.05,2.49,9.926,4.398c2.876,1.911,5.221,4.196,7.031,6.854
		C-54.046-59.365-52.959-56.411-52.597-53.171z"/>
	<path fill="#FFFFFF" d="M21.446-25.806c0,6.342-2.505,11.185-7.513,14.527C8.924-7.935,1.552-6.265-8.183-6.265h-29.811v-67.264
		h28.242c4.143,0,7.885,0.393,11.225,1.177c3.338,0.784,6.195,1.918,8.57,3.401c2.373,1.485,4.204,3.291,5.49,5.422
		s1.93,4.526,1.93,7.186c0,6.446-3.801,11.22-11.405,14.323c2.574,0.511,4.817,1.296,6.729,2.353
		c1.911,1.058,3.508,2.294,4.798,3.708c1.285,1.416,2.252,2.993,2.897,4.731C21.124-29.488,21.446-27.681,21.446-25.806z
		 M-27.493-45.346h17.62c5.875,0,10.176-0.775,12.915-2.327c2.734-1.551,4.102-4.185,4.102-7.903c0-1.67-0.312-3.138-0.936-4.399
		c-0.625-1.261-1.649-2.293-3.077-3.094C1.703-63.87-0.146-64.483-2.42-64.91c-2.273-0.427-5.079-0.64-8.417-0.64h-16.655V-45.346
		L-27.493-45.346z M-27.493-14.246h19.189c12.553,0,18.828-3.853,18.828-11.56c0-2.011-0.331-3.741-0.996-5.191
		c-0.665-1.449-1.78-2.65-3.349-3.607c-1.57-0.955-3.65-1.662-6.246-2.123c-2.595-0.46-5.824-0.691-9.686-0.691h-17.741V-14.246
		L-27.493-14.246z"/>
	<path fill="#FFFFFF" d="M101.524-53.171H90.784c-0.16-2.115-0.814-4.033-1.961-5.754c-1.146-1.722-2.665-3.188-4.556-4.399
		c-1.891-1.21-4.113-2.14-6.667-2.788c-2.555-0.647-5.28-0.972-8.177-0.972c-3.983,0-7.583,0.597-10.801,1.791
		c-3.22,1.193-5.966,2.933-8.238,5.217c-2.273,2.285-4.022,5.124-5.25,8.517c-1.228,3.394-1.841,7.272-1.841,11.636
		c0,4.365,0.613,8.228,1.841,11.586c1.228,3.359,2.957,6.198,5.19,8.517c2.231,2.32,4.949,4.083,8.146,5.295
		c3.198,1.211,6.768,1.814,10.711,1.814c6.235,0,11.274-1.279,15.116-3.836c3.841-2.556,6.005-6.257,6.487-11.099h10.741
		c-0.361,3.581-1.409,6.76-3.139,9.539c-1.73,2.78-4.003,5.133-6.817,7.059c-2.818,1.927-6.116,3.401-9.897,4.423
		c-3.782,1.022-7.886,1.536-12.31,1.536c-5.673,0-10.782-0.818-15.328-2.456c-4.546-1.636-8.418-3.963-11.617-6.982
		c-3.199-3.017-5.664-6.684-7.392-10.997c-1.731-4.314-2.595-9.113-2.595-14.4c0-5.285,0.875-10.085,2.625-14.399
		c1.75-4.313,4.225-7.979,7.423-10.998c3.199-3.018,7.069-5.354,11.616-7.008c4.545-1.653,9.635-2.481,15.268-2.481
		c4.223,0,8.208,0.511,11.948,1.534c3.743,1.023,7.049,2.49,9.926,4.398c2.876,1.911,5.221,4.196,7.031,6.854
		C100.079-59.365,101.164-56.411,101.524-53.171z"/>
</g>
<g>
	<path fill="#FFFFFF" d="M-66.009,7.116h-8.417v18.677h-3.36V7.116h-8.339V4.602h20.116V7.116z"/>
	<path fill="#FFFFFF" d="M-55.024,26.162c-1.325,0-2.543-0.179-3.649-0.539s-2.053-0.887-2.837-1.579
		c-0.786-0.694-1.397-1.537-1.834-2.531c-0.438-0.995-0.657-2.124-0.657-3.392c0-1.247,0.209-2.371,0.627-3.368
		c0.417-0.999,1.011-1.842,1.775-2.53c0.765-0.688,1.676-1.217,2.731-1.588c1.056-0.371,2.221-0.555,3.495-0.555
		c1.313,0,2.504,0.184,3.572,0.549c1.068,0.365,1.979,0.894,2.731,1.586c0.753,0.694,1.331,1.538,1.737,2.531
		c0.405,0.994,0.607,2.119,0.607,3.376v0.661h-13.859c0.064,0.892,0.251,1.666,0.559,2.32c0.31,0.655,0.708,1.198,1.197,1.628
		c0.489,0.43,1.059,0.752,1.709,0.967c0.649,0.214,1.348,0.32,2.095,0.32c0.54,0,1.078-0.061,1.611-0.184
		c0.534-0.123,1.018-0.306,1.448-0.547c0.431-0.243,0.782-0.535,1.052-0.878c0.27-0.343,0.412-0.741,0.424-1.193h3.417
		c-0.142,0.785-0.437,1.487-0.888,2.112c-0.451,0.623-1.026,1.14-1.728,1.555c-0.701,0.414-1.509,0.73-2.423,0.95
		C-53.023,26.054-53.996,26.162-55.024,26.162z M-50.198,16.639c-0.258-1.461-0.847-2.561-1.767-3.303
		c-0.92-0.742-2.056-1.113-3.407-1.113c-1.313,0-2.441,0.362-3.388,1.086c-0.945,0.725-1.542,1.835-1.785,3.328h10.348V16.639z"/>
	<path fill="#FFFFFF" d="M-39.812,25.793h-3.263V4.602h3.263V25.793z"/>
	<path fill="#FFFFFF" d="M-27.186,26.162c-1.325,0-2.542-0.179-3.647-0.539c-1.107-0.36-2.054-0.887-2.837-1.579
		c-0.786-0.694-1.397-1.537-1.835-2.531c-0.438-0.995-0.656-2.124-0.656-3.392c0-1.247,0.209-2.371,0.628-3.368
		c0.419-0.999,1.01-1.842,1.775-2.53c0.767-0.688,1.678-1.217,2.733-1.588c1.055-0.371,2.22-0.555,3.494-0.555
		c1.312,0,2.503,0.184,3.571,0.549c1.067,0.365,1.978,0.894,2.731,1.586c0.753,0.694,1.331,1.538,1.737,2.531
		c0.405,0.994,0.607,2.119,0.607,3.376v0.661h-13.861c0.064,0.892,0.251,1.666,0.559,2.32c0.309,0.655,0.709,1.198,1.198,1.628
		c0.49,0.43,1.059,0.752,1.708,0.967c0.65,0.213,1.348,0.32,2.095,0.32c0.542,0,1.079-0.061,1.612-0.184
		c0.534-0.123,1.017-0.306,1.448-0.547c0.431-0.243,0.781-0.535,1.051-0.878c0.27-0.343,0.412-0.741,0.426-1.193h3.417
		c-0.143,0.785-0.438,1.487-0.888,2.112c-0.451,0.623-1.027,1.14-1.729,1.555c-0.702,0.414-1.508,0.73-2.423,0.95
		C-25.184,26.054-26.156,26.162-27.186,26.162z M-22.359,16.639c-0.259-1.461-0.847-2.561-1.767-3.303
		c-0.92-0.742-2.056-1.113-3.407-1.113c-1.313,0-2.442,0.362-3.388,1.086c-0.946,0.725-1.542,1.835-1.787,3.328h10.349V16.639z"/>
	<path fill="#FFFFFF" d="M-0.371,10.451l-6.932,15.342h-2.933l-6.95-15.342h3.553l4.865,11.989l4.884-11.989H-0.371z"/>
	<path fill="#FFFFFF" d="M5.768,7.551H2.504v-2.95h3.264V7.551z M5.768,25.793H2.504V10.451h3.264V25.793z"/>
	<path fill="#FFFFFF" d="M17.159,26.162c-5.008,0-7.64-1.648-7.897-4.949h3.281c0.026,1.872,1.558,2.805,4.596,2.805
		c1.364,0,2.396-0.233,3.099-0.701c0.701-0.467,1.051-1.049,1.051-1.748c0-0.365-0.071-0.658-0.212-0.878
		c-0.143-0.221-0.406-0.419-0.792-0.596s-0.923-0.347-1.611-0.507c-0.689-0.161-1.593-0.365-2.711-0.613
		c-1.095-0.236-2.035-0.468-2.821-0.693c-0.786-0.225-1.431-0.499-1.939-0.822c-0.509-0.321-0.885-0.717-1.129-1.184
		c-0.245-0.467-0.367-1.055-0.367-1.765c0-0.634,0.162-1.222,0.483-1.765c0.322-0.542,0.781-1.01,1.38-1.403
		c0.597-0.391,1.316-0.701,2.153-0.926c0.834-0.227,1.78-0.339,2.836-0.339c4.813,0,7.266,1.43,7.355,4.286h-3.243
		c-0.103-1.427-1.396-2.142-3.879-2.142c-1.107,0-2.022,0.175-2.743,0.523c-0.719,0.35-1.08,0.856-1.08,1.522
		c0,0.29,0.041,0.535,0.125,0.734c0.083,0.199,0.297,0.376,0.637,0.531c0.34,0.156,0.845,0.319,1.515,0.493
		c0.669,0.171,1.577,0.376,2.721,0.611c1.121,0.216,2.093,0.444,2.916,0.685c0.824,0.242,1.506,0.534,2.046,0.878
		c0.541,0.344,0.943,0.762,1.207,1.257c0.265,0.493,0.395,1.106,0.395,1.836c0,0.688-0.17,1.327-0.511,1.918
		c-0.341,0.59-0.834,1.107-1.476,1.546c-0.644,0.441-1.422,0.785-2.336,1.033C19.294,26.04,18.277,26.162,17.159,26.162z"/>
	<path fill="#FFFFFF" d="M31.598,7.551h-3.263v-2.95h3.263V7.551z M31.598,25.793h-3.263V10.451h3.263V25.793z"/>
	<path fill="#FFFFFF" d="M43.875,10.08c1.313,0,2.504,0.184,3.572,0.549c1.068,0.365,1.977,0.894,2.731,1.586
		c0.753,0.694,1.331,1.538,1.737,2.531c0.405,0.994,0.608,2.119,0.608,3.376c0,1.268-0.207,2.397-0.618,3.391
		c-0.413,0.995-0.994,1.837-1.748,2.531c-0.753,0.692-1.665,1.219-2.732,1.58c-1.068,0.359-2.252,0.539-3.552,0.539
		c-1.286,0-2.46-0.18-3.523-0.539c-1.062-0.361-1.97-0.882-2.722-1.564c-0.751-0.684-1.338-1.522-1.757-2.514
		c-0.418-0.993-0.629-2.136-0.629-3.424c0-1.269,0.207-2.399,0.62-3.393c0.411-0.993,0.994-1.836,1.746-2.53
		c0.753-0.694,1.664-1.219,2.732-1.581C41.412,10.261,42.589,10.08,43.875,10.08z M43.875,24.019c0.772,0,1.478-0.122,2.114-0.368
		c0.636-0.249,1.19-0.62,1.66-1.114c0.468-0.495,0.831-1.109,1.08-1.846c0.252-0.735,0.376-1.592,0.376-2.569
		c0-0.978-0.124-1.833-0.376-2.562c-0.25-0.731-0.612-1.346-1.08-1.847c-0.47-0.499-1.024-0.872-1.66-1.12
		c-0.636-0.247-1.342-0.37-2.114-0.37c-0.785,0-1.495,0.123-2.133,0.37c-0.638,0.248-1.187,0.621-1.65,1.12
		c-0.465,0.501-0.825,1.116-1.081,1.847c-0.259,0.729-0.387,1.584-0.387,2.562c0,0.977,0.128,1.834,0.387,2.569
		c0.257,0.737,0.617,1.351,1.081,1.846c0.463,0.494,1.012,0.865,1.65,1.114C42.38,23.896,43.091,24.019,43.875,24.019z"/>
	<path fill="#FFFFFF" d="M59.437,12.4c1.622-1.545,3.447-2.32,5.482-2.32c4.143,0,6.215,1.892,6.215,5.673v10.04h-3.28v-9.911
		c0-1.268-0.267-2.174-0.802-2.715c-0.534-0.542-1.399-0.814-2.596-0.814c-1.673,0-3.347,0.811-5.019,2.434v11.006h-3.263V10.451
		h3.263V12.4z"/>
</g>
</svg>
