<?xml version="1.0" encoding="UTF-8" standalone="no"?>
<!-- Created with Inkscape (http://www.inkscape.org/) -->

<svg
   xmlns:dc="http://purl.org/dc/elements/1.1/"
   xmlns:cc="http://creativecommons.org/ns#"
   xmlns:rdf="http://www.w3.org/1999/02/22-rdf-syntax-ns#"
   xmlns:svg="http://www.w3.org/2000/svg"
   xmlns="http://www.w3.org/2000/svg"
   xmlns:xlink="http://www.w3.org/1999/xlink"
   xmlns:sodipodi="http://sodipodi.sourceforge.net/DTD/sodipodi-0.dtd"
   xmlns:inkscape="http://www.inkscape.org/namespaces/inkscape"
   width="574"
   height="172"
   id="svg2"
   version="1.1"
   inkscape:version="0.47 r22583">
  <g
     inkscape:label="Layer 1"
     inkscape:groupmode="layer"
     id="layer1"
     transform="translate(-155.52948,-472.9712)">
    <path
       id="path14913"
       d="m 646.34403,639.3353 c -45.93605,0 -83.16216,-37.2459 -83.16216,-83.182 0,-45.93609 37.22611,-83.1821 83.16216,-83.1821 45.937,0 83.1822,37.24601 83.1822,83.1821 0,45.9361 -37.2452,83.182 -83.1822,83.182 m 76.6201,-83.7736 c -14.5438,-26.8797 -42.1724,-48.4193 -76.6201,-48.4193 -33.85555,0 -61.78025,21.6776 -76.61915,48.4193 14.7009,26.8799 42.4679,49.3067 76.61915,49.4637 34.7429,0.136 62.0763,-22.5838 76.6201,-49.4637 m -76.6201,44.6952 c -24.35745,0 -44.10355,-19.7461 -44.10355,-44.1036 0,-24.3577 19.7461,-44.12359 44.10355,-44.12359 24.3576,0 44.1039,19.76589 44.1039,44.12359 0,24.3575 -19.7463,44.1036 -44.1039,44.1036 m -331.60395,38.3094 0,-159.64359 -24.8111,0 0,-1.59611 74.393,0 c 31.6093,0 53.6215,19.4107 53.6215,39.2162 0,14.7994 -5.5962,28.8113 -36.8115,35.6096 12.0012,1.59681 44.79279,10.4051 44.79279,41.6012 0,31.21531 -34.38769,46.4286 -57.99669,46.4286 l -77.9991,0 0,-1.6159 z m 29.5995,-87.2021 25.4017,0 c 10.3854,0 21.38189,-1.6159 21.38189,-35.2154 0,-33.6201 -13.18419,-37.22609 -27.19529,-37.22609 l -19.5883,0 z m 0,1.5771 0,85.625 22.8003,0 c 18.3863,0 29.9934,-7.5872 29.9934,-42.4086 0,-34.8022 -12.8091,-42.8026 -28.8112,-43.2164 z m -156.0183,6.7982 c 0,64.0274 11.7456,72.3044 13.4004,74.0384 5.3995,5.5963 17.2041,9.5972 25.7966,9.5972 30.0133,0 47.1976,-40.4184 51.6117,-63.61349 l 0,60.00669 c -5.203,-4.0002 -7.607,-5.9904 -13.20331,-5.9904 -5.59699,0 -13.20389,3.1923 -17.20409,5.5963 -4.0009,2.4048 -12.7901,5.597 -20.7904,5.597 -31.6101,0 -72.4027,-25.6191 -72.4027,-85.2317 0,-50.3898 45.9955,-85.2117 72.4027,-85.2117 8.0003,0 16.0014,2.0106 20.0022,4.39491 4.0002,2.42379 12.3953,5.2027 17.99229,5.2027 5.59631,0 8.00031,-1.99071 13.20331,-5.99091 l 0,59.6126 c -5.203,-17.2041 -21.5984,-61.6028 -51.6117,-61.6028 -21.1852,0 -39.197,21.99241 -39.197,83.5952 m 342.02939,48.4194 c 0.78401,-15.1933 -14.0111,-24.7905 -20.81019,-27.6091 -6.799,-2.7982 -29.9935,-11.19329 -38.0143,-13.9914 -9.18321,-3.212 -29.3036,-13.6369 -28.0032,-40.8125 1.8132,-37.2063 28.6145,-51.0406 40.0242,-51.2181 6.48349,-0.1 11.5877,0.512 16.7903,2.1089 4.7097,1.4581 14.01109,5.1039 17.2041,5.1039 3.5863,0 8.3951,-2.4041 14.40519,-7.607 l 0,56.4006 c -10.4051,-42.4085 -30.80139,-54.3899 -46.01459,-54.3899 -15.1942,0 -26.3873,9.9913 -26.8013,28.3973 -0.39601,18.4054 15.21319,28.3974 24.8104,31.6094 9.59709,3.1922 26.0131,8.3951 37.60039,12.8092 9.99131,3.5868 26.40721,15.19411 25.9933,37.9945 -1.596,45.6212 -41.20649,53.2275 -48.39959,53.2275 -7.19311,0 -23.1952,-3.212 -33.9944,-8.0202 -10.799,-4.789 -17.5981,1.6159 -21.618,5.2022 l 0,-56.8144 c 9.6169,42.0151 34.822,57.6224 55.6124,58.0165 20.8102,0.396 30.80149,-17.2034 31.21529,-30.4074"
       style="fill:#221e1f;fill-rule:nonzero;stroke:none" />
  </g>
</svg>
